<svg id="visual" viewBox="0 0 900 675" width="900" height="675" xmlns="http://www.w3.org/2000/svg" xmlns:xlink="http://www.w3.org/1999/xlink" version="1.1"><rect x="0" y="0" width="900" height="675" fill="#001"></rect><defs><linearGradient id="grad1_0" x1="25%" y1="0%" x2="100%" y2="100%"><stop offset="23.333333333333336%" stop-color="#000011" stop-opacity="1"></stop><stop offset="76.66666666666666%" stop-color="#000011" stop-opacity="1"></stop></linearGradient></defs><defs><linearGradient id="grad2_0" x1="0%" y1="0%" x2="75%" y2="100%"><stop offset="23.333333333333336%" stop-color="#000011" stop-opacity="1"></stop><stop offset="76.66666666666666%" stop-color="#000011" stop-opacity="1"></stop></linearGradient></defs><g transform="translate(900, 0)"><path d="M0 506.3C-57.9 480.3 -115.8 454.3 -179.9 434.2C-243.9 414.1 -314.1 399.9 -358 358C-401.9 316.1 -419.4 246.4 -439.8 182.2C-460.1 117.9 -483.2 58.9 -506.2 0L0 0Z" fill="#009473"></path></g><g transform="translate(0, 675)"><path d="M0 -506.2C50.2 -459.9 100.4 -413.5 163.8 -395.4C227.1 -377.3 303.6 -387.5 358 -358C412.3 -328.4 444.6 -259.2 465.6 -192.9C486.7 -126.6 496.5 -63.3 506.3 0L0 0Z" fill="#009473"></path></g></svg>