<svg xmlns="http://www.w3.org/2000/svg" version="1.1" xmlns:xlink="http://www.w3.org/1999/xlink" xmlns:svgjs="http://svgjs.dev/svgjs" width="1440" height="2000" preserveAspectRatio="none" viewBox="0 0 1440 2000"><g mask="url(&quot;#SvgjsMask1038&quot;)" fill="none"><rect width="1440" height="2000" x="0" y="0" fill="#0e2a47"></rect><path d="M1418 1525L1417 2761" stroke-width="8" stroke="url(&quot;#SvgjsLinearGradient1039&quot;)" stroke-linecap="round" class="Down"></path><path d="M825 1793L824 960" stroke-width="8" stroke="url(&quot;#SvgjsLinearGradient1039&quot;)" stroke-linecap="round" class="Down"></path><path d="M1338 474L1337 -713" stroke-width="10" stroke="url(&quot;#SvgjsLinearGradient1040&quot;)" stroke-linecap="round" class="Up"></path><path d="M1230 443L1229 -409" stroke-width="8" stroke="url(&quot;#SvgjsLinearGradient1040&quot;)" stroke-linecap="round" class="Up"></path><path d="M77 1969L76 894" stroke-width="10" stroke="url(&quot;#SvgjsLinearGradient1040&quot;)" stroke-linecap="round" class="Up"></path><path d="M1407 395L1406 -201" stroke-width="8" stroke="url(&quot;#SvgjsLinearGradient1039&quot;)" stroke-linecap="round" class="Down"></path><path d="M1049 1038L1048 -77" stroke-width="8" stroke="url(&quot;#SvgjsLinearGradient1040&quot;)" stroke-linecap="round" class="Up"></path><path d="M282 1114L281 -197" stroke-width="6" stroke="url(&quot;#SvgjsLinearGradient1039&quot;)" stroke-linecap="round" class="Down"></path><path d="M504 464L503 -135" stroke-width="8" stroke="url(&quot;#SvgjsLinearGradient1039&quot;)" stroke-linecap="round" class="Down"></path><path d="M584 60L583 -456" stroke-width="6" stroke="url(&quot;#SvgjsLinearGradient1039&quot;)" stroke-linecap="round" class="Down"></path><path d="M702 18L701 -817" stroke-width="6" stroke="url(&quot;#SvgjsLinearGradient1039&quot;)" stroke-linecap="round" class="Down"></path><path d="M1392 1260L1391 485" stroke-width="8" stroke="url(&quot;#SvgjsLinearGradient1040&quot;)" stroke-linecap="round" class="Up"></path><path d="M115 1962L114 2988" stroke-width="6" stroke="url(&quot;#SvgjsLinearGradient1040&quot;)" stroke-linecap="round" class="Up"></path><path d="M13 1466L12 468" stroke-width="8" stroke="url(&quot;#SvgjsLinearGradient1039&quot;)" stroke-linecap="round" class="Down"></path><path d="M118 1860L117 969" stroke-width="6" stroke="url(&quot;#SvgjsLinearGradient1040&quot;)" stroke-linecap="round" class="Up"></path><path d="M972 1966L971 1228" stroke-width="10" stroke="url(&quot;#SvgjsLinearGradient1039&quot;)" stroke-linecap="round" class="Down"></path><path d="M1381 1484L1380 450" stroke-width="6" stroke="url(&quot;#SvgjsLinearGradient1040&quot;)" stroke-linecap="round" class="Up"></path><path d="M248 562L247 1209" stroke-width="8" stroke="url(&quot;#SvgjsLinearGradient1040&quot;)" stroke-linecap="round" class="Up"></path><path d="M54 1403L53 1917" stroke-width="10" stroke="url(&quot;#SvgjsLinearGradient1040&quot;)" stroke-linecap="round" class="Up"></path><path d="M1037 290L1036 1160" stroke-width="10" stroke="url(&quot;#SvgjsLinearGradient1039&quot;)" stroke-linecap="round" class="Down"></path><path d="M891 236L890 1044" stroke-width="10" stroke="url(&quot;#SvgjsLinearGradient1040&quot;)" stroke-linecap="round" class="Up"></path><path d="M567 1009L566 269" stroke-width="6" stroke="url(&quot;#SvgjsLinearGradient1039&quot;)" stroke-linecap="round" class="Down"></path><path d="M263 969L262 1943" stroke-width="8" stroke="url(&quot;#SvgjsLinearGradient1039&quot;)" stroke-linecap="round" class="Down"></path><path d="M643 928L642 -389" stroke-width="10" stroke="url(&quot;#SvgjsLinearGradient1039&quot;)" stroke-linecap="round" class="Down"></path><path d="M983 1918L982 2546" stroke-width="10" stroke="url(&quot;#SvgjsLinearGradient1040&quot;)" stroke-linecap="round" class="Up"></path><path d="M493 1226L492 216" stroke-width="10" stroke="url(&quot;#SvgjsLinearGradient1039&quot;)" stroke-linecap="round" class="Down"></path><path d="M36 137L35 698" stroke-width="6" stroke="url(&quot;#SvgjsLinearGradient1040&quot;)" stroke-linecap="round" class="Up"></path><path d="M27 1291L26 309" stroke-width="8" stroke="url(&quot;#SvgjsLinearGradient1039&quot;)" stroke-linecap="round" class="Down"></path><path d="M749 1832L748 742" stroke-width="6" stroke="url(&quot;#SvgjsLinearGradient1039&quot;)" stroke-linecap="round" class="Down"></path><path d="M1384 401L1383 962" stroke-width="8" stroke="url(&quot;#SvgjsLinearGradient1039&quot;)" stroke-linecap="round" class="Down"></path><path d="M1112 1689L1111 478" stroke-width="10" stroke="url(&quot;#SvgjsLinearGradient1040&quot;)" stroke-linecap="round" class="Up"></path><path d="M105 1302L104 549" stroke-width="8" stroke="url(&quot;#SvgjsLinearGradient1039&quot;)" stroke-linecap="round" class="Down"></path><path d="M1390 294L1389 -781" stroke-width="8" stroke="url(&quot;#SvgjsLinearGradient1039&quot;)" stroke-linecap="round" class="Down"></path><path d="M223 1530L222 2133" stroke-width="10" stroke="url(&quot;#SvgjsLinearGradient1040&quot;)" stroke-linecap="round" class="Up"></path><path d="M1369 769L1368 149" stroke-width="8" stroke="url(&quot;#SvgjsLinearGradient1040&quot;)" stroke-linecap="round" class="Up"></path><path d="M942 1794L941 3081" stroke-width="8" stroke="url(&quot;#SvgjsLinearGradient1039&quot;)" stroke-linecap="round" class="Down"></path></g><defs><mask id="SvgjsMask1038"><rect width="1440" height="2000" fill="#ffffff"></rect></mask><linearGradient x1="0%" y1="0%" x2="0%" y2="100%" id="SvgjsLinearGradient1039"><stop stop-color="rgba(28, 83, 142, 0)" offset="0"></stop><stop stop-color="#1c538e" offset="1"></stop></linearGradient><linearGradient x1="0%" y1="100%" x2="0%" y2="0%" id="SvgjsLinearGradient1040"><stop stop-color="rgba(28, 83, 142, 0)" offset="0"></stop><stop stop-color="#1c538e" offset="1"></stop></linearGradient></defs></svg>