<svg id="visual" viewBox="0 0 900 600" width="900" height="600" xmlns="http://www.w3.org/2000/svg" xmlns:xlink="http://www.w3.org/1999/xlink" version="1.1"><rect x="0" y="0" width="900" height="600" fill="#000"></rect><path d="M0 474L18.8 481.5C37.7 489 75.3 504 112.8 516C150.3 528 187.7 537 225.2 539.3C262.7 541.7 300.3 537.3 337.8 524.7C375.3 512 412.7 491 450.2 490.8C487.7 490.7 525.3 511.3 562.8 518.3C600.3 525.3 637.7 518.7 675.2 515.3C712.7 512 750.3 512 787.8 508C825.3 504 862.7 496 881.3 492L900 488L900 601L881.3 601C862.7 601 825.3 601 787.8 601C750.3 601 712.7 601 675.2 601C637.7 601 600.3 601 562.8 601C525.3 601 487.7 601 450.2 601C412.7 601 375.3 601 337.8 601C300.3 601 262.7 601 225.2 601C187.7 601 150.3 601 112.8 601C75.3 601 37.7 601 18.8 601L0 601Z" fill="#3BCF92" stroke-linecap="round" stroke-linejoin="miter"></path></svg>